<svg width="24" height="24" viewBox="0 0 24 24" fill="none" xmlns="http://www.w3.org/2000/svg">
<path d="M12 24C9.62663 24 7.30655 23.2962 5.33316 21.9776C3.35977 20.6591 1.8217 18.7849 0.913451 16.5922C0.00519941 14.3995 -0.232441 11.9867 0.230582 9.65892C0.693605 7.33115 1.83649 5.19295 3.51472 3.51472C5.19295 1.83649 7.33115 0.693605 9.65892 0.230582C11.9867 -0.232441 14.3995 0.00519941 16.5922 0.913451C18.7849 1.8217 20.6591 3.35977 21.9776 5.33316C23.2962 7.30655 24 9.62663 24 12C24 15.1826 22.7357 18.2348 20.4853 20.4853C18.2348 22.7357 15.1826 24 12 24ZM12 1.84616C9.99176 1.84616 8.02862 2.44167 6.35883 3.55739C4.68904 4.67311 3.38759 6.25892 2.61907 8.1143C1.85055 9.96967 1.64947 12.0113 2.04126 13.9809C2.43305 15.9506 3.40011 17.7598 4.82015 19.1799C6.24019 20.5999 8.04943 21.567 10.0191 21.9587C11.9887 22.3505 14.0303 22.1495 15.8857 21.3809C17.7411 20.6124 19.3269 19.311 20.4426 17.6412C21.5583 15.9714 22.1538 14.0082 22.1538 12C22.1538 9.30704 21.0841 6.72437 19.1799 4.82015C17.2756 2.91594 14.693 1.84616 12 1.84616Z" fill="white"/>
<path d="M11.9997 12.923C11.0868 12.923 10.1945 12.6524 9.43549 12.1452C8.6765 11.6381 8.08493 10.9173 7.7356 10.0739C7.38628 9.23055 7.29488 8.30255 7.47296 7.40726C7.65105 6.51196 8.09062 5.68958 8.73609 5.04411C9.38157 4.39863 10.2039 3.95906 11.0992 3.78098C11.9945 3.60289 12.9225 3.69429 13.7659 4.04362C14.6092 4.39295 15.3301 4.98451 15.8372 5.7435C16.3444 6.5025 16.615 7.39484 16.615 8.30767C16.615 9.53175 16.1288 10.7057 15.2632 11.5712C14.3977 12.4368 13.2237 12.923 11.9997 12.923ZM11.9997 5.53844C11.452 5.53844 10.9166 5.70086 10.4612 6.00514C10.0058 6.30943 9.65082 6.74192 9.44123 7.24793C9.23163 7.75394 9.17679 8.31074 9.28364 8.84792C9.39049 9.3851 9.65424 9.87853 10.0415 10.2658C10.4288 10.6531 10.9222 10.9168 11.4594 11.0237C11.9966 11.1305 12.5534 11.0757 13.0594 10.8661C13.5654 10.6565 13.9979 10.3016 14.3022 9.84617C14.6065 9.39077 14.7689 8.85537 14.7689 8.30767C14.7689 7.57323 14.4771 6.86886 13.9578 6.34953C13.4385 5.8302 12.7341 5.53844 11.9997 5.53844Z" fill="white"/>
<path d="M20.8165 19.3845C20.6884 19.3854 20.5615 19.3596 20.4439 19.3087C20.3263 19.2579 20.2205 19.1831 20.1334 19.0891C19.1536 18.0204 17.9627 17.1667 16.636 16.582C15.3092 15.9973 13.8756 15.6943 12.4257 15.6922H11.5765C8.87395 15.6864 6.27519 16.7325 4.33039 18.6091C4.1507 18.7574 3.9216 18.8323 3.68903 18.8187C3.45646 18.8051 3.23764 18.704 3.07645 18.5358C2.91526 18.3676 2.82363 18.1447 2.81994 17.9118C2.81625 17.6789 2.90077 17.4531 3.05655 17.2799C5.34197 15.0709 8.39806 13.8392 11.5765 13.8461H12.4257C14.1299 13.8499 15.8149 14.2062 17.3749 14.8924C18.9348 15.5786 20.3359 16.5801 21.4903 17.8338C21.6123 17.9653 21.6933 18.1295 21.7235 18.3063C21.7536 18.4831 21.7316 18.6648 21.6601 18.8293C21.5886 18.9938 21.4708 19.1339 21.321 19.2325C21.1711 19.3311 20.9958 19.384 20.8165 19.3845Z" fill="white"/>
</svg>
